<?xml version="1.0" standalone="no"?><!DOCTYPE svg PUBLIC "-//W3C//DTD SVG 1.1//EN" "http://www.w3.org/Graphics/SVG/1.1/DTD/svg11.dtd"><svg t="1512400865365" class="icon" style="" viewBox="0 0 1024 1024" version="1.1" xmlns="http://www.w3.org/2000/svg" p-id="1079" xmlns:xlink="http://www.w3.org/1999/xlink" width="1024" height="1024"><defs><style type="text/css"></style></defs><path d="M908.544 402.666667c-0.704-0.917333-1.408-1.685333-1.792-2.197334-11.136-13.781333 4.885333-2.88 9.066667-8.576 4.970667-6.784-10.496-19.413333-14.677334-22.954666-7.658667-6.229333-17.856-11.605333-27.818666-13.077334 3.712 0.298667 12.288 0.064 11.989333-4.885333-0.32-5.098667-12.565333-11.157333-16.298667-13.226667-8.362667-4.778667-17.066667-9.173333-26.538666-11.754666-7.914667-2.176-15.552-1.258667-23.168-2.048 2.581333-1.664 5.973333-2.709333 8.277333-5.504-8.448-13.162667-47.445333-7.317333-56.704 2.581333 4.544-5.226667 7.061333-9.834667-2.026667-10.197333-6.314667-0.234667-12.330667 2.581333-18.218666 4.458666-90.069333 27.968-149.184 89.664-168.085334 110.442667-19.498667 21.568-26.709333 40.533333-26.709333 40.533333 26.24-24.704 57.237333-48.96 91.52-67.008 20.565333-10.837333 60.010667-26.005333 82.154667-10.794666 5.354667 3.669333 9.962667 7.872 16.512 9.258666 0.64-2.133333 2.090667-3.712 1.813333-6.336 5.290667 7.253333 0.128 17.621333 6.037333 25.664 7.637333 10.474667 15.296 5.717333 23.210667-0.490666-2.965333 9.088 0.149333 21.866667 5.546667 29.44 5.802667 8.298667 16.704 8 19.541333-2.581334 2.069333 11.584 14.165333 50.069333 32.96 32.405334 10.944-10.368 16.362667-34.517333 11.157333-47.445334 6.378667 7.424 12.757333 22.421333 21.525334 29.333334 7.786667 6.314667 17.557333 7.402667 27.029333 1.642666 13.077333-7.701333 13.077333-21.461333 12.949333-34.666666 0-8.170667 2.624-2.837333 7.253334-4.288 6.378667-2.090667-2.090667-12.544-6.506667-17.728z" fill="#388E3C" p-id="1080"></path><path d="M621.546667 115.52c0.853333 0.682667 1.685333 1.365333 2.154666 1.813333 13.802667 11.072 2.858667-4.928 8.661334-9.066666 6.72-4.992 19.349333 10.410667 22.848 14.677333 6.186667 7.616 11.584 17.877333 13.056 27.797333-0.277333-3.712 0-12.202667 4.906666-11.925333 5.12 0.341333 11.178667 12.544 13.248 16.277333 4.778667 8.362667 9.216 17.045333 11.733334 26.581334 2.218667 7.893333 1.258667 15.552 2.069333 23.168 1.642667-2.645333 2.730667-5.973333 5.482667-8.341334 13.184 8.533333 7.338667 47.509333-2.56 56.746667 5.205333-4.501333 9.834667-7.082667 10.133333 2.069333 0.277333 6.293333-2.517333 12.309333-4.394667 18.218667-28.032 90.048-89.685333 149.226667-110.464 168.085333-21.568 19.562667-40.448 26.773333-40.448 26.773334 24.682667-26.261333 48.896-57.258667 66.986667-91.584 10.773333-20.544 25.962667-60.010667 10.773333-82.176-3.669333-5.290667-7.914667-9.941333-9.28-16.554667 2.133333-0.618667 3.712-2.005333 6.314667-1.749333-7.317333-5.354667-17.642667-0.170667-25.621333-6.101334-10.432-7.616-5.696-15.253333 0.490666-23.210666-9.024 3.050667-21.824-0.170667-29.418666-5.546667-8.341333-5.845333-8-16.768 2.581333-19.626667-11.626667-2.005333-50.048-14.08-32.384-32.938666 10.368-10.901333 34.432-16.341333 47.402667-11.136-7.424-6.378667-22.4-12.736-29.290667-21.504-6.378667-7.850667-7.424-17.642667-1.706667-27.072 7.722667-13.077333 21.461333-13.034667 34.709334-12.970667 8.149333 0 2.730667-2.645333 4.202666-7.232 2.112-6.421333 12.544 2.048 17.813334 6.528z" fill="#388E3C" p-id="1081"></path><path d="M887.765333 136.256c-17.557333-17.578667-34.432-6.314667-48.256 7.722667 4.117333-5.717333-0.896-13.674667-7.957333-15.701334-7.061333-2.005333-13.546667 1.834667-17.962667 6.250667-9.024 9.088-8.917333 22.357333-8.810666 34.730667-6.933333-14.912-24.234667-7.701333-29.994667 4.309333-5.056 10.581333-5.226667 22.997333-3.306667 34.538667-5.952-6.549333-15.850667-6.549333-23.082666 1.578666-20.757333 23.466667-23.296 86.677333-129.578667 190.357334-1.578667 1.514667 3.946667 6.528 5.034667 5.504 129.792-124.970667 165.738667-105.770667 193.109333-128.981334 6.890667-5.845333-0.384-10.837333-6.592-12.906666 8.149333-0.554667 16.298667-1.856 24.362667-2.965334 9.984-1.472 22.101333-3.477333 29.525333-11.114666 4.650667-4.842667 9.152-12.864 5.674667-19.690667-3.626667-7.296-10.688-6.058667-17.493334-7.232 12.416-1.536 28.096-4.778667 37.909334-13.781333 4.8-4.416 8.597333-9.834667 7.637333-16.682667-0.704-4.842667-4.970667-14.186667-11.349333-12.096 12.544-10.602667 12.266667-32.704 1.130666-43.84z" fill="#4CAF50" p-id="1082"></path><path d="M662.037333 577.429333c41.813333-43.605333 40.170667-117.162667-28.949333-186.24-69.056-69.205333-142.698667-70.933333-185.408-28.224-91.008 100.224-321.301333 485.376-296.469333 510.229334 20.757333 20.736 375.061333-181.632 510.826666-295.765334z" fill="#FF9800" p-id="1083"></path><path d="M425.216 605.653333a21.333333 21.333333 0 0 0 30.186667 0 21.333333 21.333333 0 0 0 0-30.208l-95.104-95.168c-7.893333 11.733333-15.957333 23.914667-24.042667 36.373334l88.96 89.002666zM416.618667 400.938667l41.152 41.194666a21.354667 21.354667 0 0 0 30.186666-30.208l-44.309333-44.352c-8.106667 9.28-17.194667 20.437333-27.029333 33.365334zM201.6 787.733333a21.205333 21.205333 0 0 0 30.186667 0 21.333333 21.333333 0 0 0 0-30.186666l-24.682667-24.704a1606.4 1606.4 0 0 0-20.757333 39.658666l15.253333 15.232zM573.162667 540.074667a21.333333 21.333333 0 1 0-30.186667 30.208l55.744 55.765333c12.266667-8.810667 23.893333-17.408 34.688-25.706667l-60.245333-60.266666z" fill="#EF6C00" p-id="1084"></path></svg>