<?xml version="1.0" encoding="utf-8"?>
<svg version="1.1"
	 xmlns="http://www.w3.org/2000/svg" xmlns:xlink="http://www.w3.org/1999/xlink" xmlns:a="http://ns.adobe.com/AdobeSVGViewerExtensions/3.0/"
	 x="0px" y="0px" width="370px" height="540px" viewBox="0 0 37 54" style="enable-background:new 0 0 37 54;" xml:space="preserve">
<g id="Dark">
</g>
<g id="Light">
	<g id="iPhone_8">
		<path id="iPhone_8_1_" style="fill:#333333;" d="M13.99,48.13l-0.04-1.12H1V16.99h13V13H2.87C1.29,13,0,14.3,0,15.88v32.26
			C0,49.71,1.29,51,2.87,51h12.77C14.79,50.33,13.99,49.3,13.99,48.13z M8,15h3v0.5H8V15z M9.5,50.5C8.67,50.5,8,49.83,8,49
			c0-0.83,0.67-1.5,1.5-1.5c0.83,0,1.5,0.67,1.5,1.5C11,49.83,10.33,50.5,9.5,50.5z M33.65,6H18.33C16.49,6,15,7.51,15,9.35v38.28
			c0,1.85,1.49,3.37,3.33,3.37h15.33c1.84,0,3.35-1.52,3.35-3.37V9.35C37,7.51,35.49,6,33.65,6z M24.5,8.5h3V9h-3V8.5z M26,50.25
			c-0.97,0-1.75-0.78-1.75-1.75c0-0.97,0.79-1.75,1.75-1.75c0.96,0,1.75,0.78,1.75,1.75C27.75,49.47,26.97,50.25,26,50.25z M36,46
			H16V11h20V46z M26,49.5c-0.55,0-1-0.45-1-1c0-0.55,0.45-1,1-1s1,0.45,1,1C27,49.05,26.55,49.5,26,49.5z M9.5,49.88
			c-0.48,0-0.87-0.39-0.87-0.88c0-0.48,0.39-0.87,0.87-0.87c0.48,0,0.88,0.39,0.88,0.87C10.38,49.48,9.98,49.88,9.5,49.88z"/>
		<rect style="fill:none;" width="37" height="54"/>
	</g>
</g>
</svg>
